<svg width="27" height="16" viewBox="0 0 27 16" fill="none" xmlns="http://www.w3.org/2000/svg">
<path d="M13.5815 6.21235C11.9845 8.39238 10.5638 10.4415 9.01217 12.3899C8.24641 13.3516 7.27915 14.1773 6.31692 14.9577C5.17837 15.884 3.79295 15.9495 2.40251 15.738C1.06244 15.5366 0.452861 14.5599 0.649338 13.0646C0.795435 11.9469 1.45036 11.6045 2.81562 11.5189C3.58641 11.4736 4.55871 11.2118 5.05241 10.6882C6.45294 9.20297 7.70737 7.56668 8.92149 5.92033C9.92402 4.56096 10.8006 3.11096 11.7225 1.6962C12.8107 0.0246723 14.2012 0.0347401 15.3095 1.67102C17.0274 4.19845 18.7856 6.70071 20.564 9.18786C20.9821 9.77189 21.5212 10.2703 22.0401 10.7738C22.6698 11.383 23.3801 11.6901 24.3272 11.5743C25.6572 11.4082 26.2467 11.8915 26.4028 13.0042C26.6144 14.5247 26.0401 15.5165 24.7252 15.733C23.1585 15.9847 21.5665 15.879 20.4279 14.6858C18.7453 12.9236 17.1936 11.0255 15.642 9.13752C14.9115 8.25141 14.312 7.25453 13.5815 6.21235Z" fill="#155883"/>
</svg>
