<svg width="12" height="31" viewBox="0 0 12 31" fill="none" xmlns="http://www.w3.org/2000/svg">
<path d="M0.116324 20.6188C0.0659456 16.2234 1.73347 12.3115 3.64282 8.49011C4.82672 6.11875 6.16679 3.82292 7.44137 1.49688C7.8847 0.686289 8.42374 -0.0689197 9.50185 0.213025C10.4943 0.469796 11.114 1.20487 11.0938 2.23195C11.0485 4.44723 11.0535 6.68264 10.7613 8.87275C10.1366 13.6054 9.3759 18.3179 8.59 23.0254C8.29276 24.8026 7.84942 26.5698 7.35572 28.3017C6.76125 30.3811 5.08868 30.8392 3.54206 29.2986C1.48661 27.2545 0.201973 24.7976 0.121367 21.8221C0.106253 21.4193 0.116324 21.0165 0.116324 20.6188Z" fill="#155883"/>
</svg>
