<svg width="13" height="32" viewBox="0 0 13 32" fill="none" xmlns="http://www.w3.org/2000/svg">
<path d="M12.596 21.5683C12.5658 25.0725 11.4675 28.0984 8.97381 30.5352C8.44483 31.0487 7.61863 31.4213 6.8831 31.527C5.49265 31.7284 4.80751 31.3055 4.44982 29.936C3.74452 27.2173 3.04426 24.4834 2.611 21.7093C1.80495 16.5537 1.15506 11.368 0.520294 6.18222C0.374196 5.00409 0.464877 3.77059 0.626088 2.58743C0.752035 1.68118 1.32635 0.941074 2.31881 0.759824C3.28607 0.583609 4.18785 0.744721 4.72186 1.70132C7.47757 6.60514 10.4801 11.4032 11.8353 16.9515C12.2081 18.4619 12.3492 20.0277 12.596 21.5683Z" fill="#155883"/>
</svg>
